*%FSLAX23Y23*%
*%MOIN*%
G01*
%ADD11C,0.016*%
%ADD12C,0.060*%
%ADD13C,0.180*%
%ADD14C,0.012*%
%ADD15C,0.024*%
%ADD16C,0.052*%
%ADD17C,0.030*%
%ADD18C,0.020*%
%ADD19C,0.006*%
%ADD20C,0.040*%
%ADD21C,0.008*%
%ADD22C,0.010*%
%ADD23R,0.080X0.060*%
%ADD24R,0.030X0.016*%
%ADD25R,0.080X0.024*%
%ADD26R,0.040X0.060*%
%ADD27O,0.080X0.060*%
%ADD28O,0.080X0.024*%
%ADD29R,0.013X0.013*%
%ADD30R,0.025X0.025*%
G54D11*
X4310Y1200D02*
X4310Y1200D01*
X4385Y1225D01*
X4385Y1225D02*
X4385Y1225D01*
X4385Y1175D01*
X4385Y1175D02*
X4385Y1175D01*
X4310Y1200D01*
G54D14*
X4310Y1200D02*
X4310Y1200D01*
X4285Y1200D01*
X4310Y1250D02*
X4310Y1250D01*
X4310Y950D01*
X4310Y950D02*
X4310Y950D01*
X4235Y950D01*
X4235Y950D02*
X4235Y950D01*
X4235Y900D01*
X4235Y900D02*
X4235Y900D01*
X4735Y900D01*
X4735Y900D02*
X4735Y900D01*
X4735Y1300D01*
X4735Y1300D02*
X4735Y1300D01*
X4235Y1300D01*
X4235Y1300D02*
X4235Y1300D01*
X4235Y1250D01*
X4235Y1250D02*
X4235Y1250D01*
X4310Y1250D01*
X4385Y1150D02*
X4385Y1150D01*
X4610Y1150D01*
X4610Y1150D02*
X4610Y1150D01*
X4610Y1200D01*
X4610Y1200D02*
X4610Y1200D01*
X4635Y1200D01*
X4635Y1200D02*
X4635Y1200D01*
X4685Y1200D01*
X4685Y1200D02*
X4685Y1200D01*
X4685Y1000D01*
X4685Y1000D02*
X4685Y1000D01*
X4635Y1000D01*
X4635Y1000D02*
X4635Y1000D01*
X4635Y950D01*
X4635Y950D02*
X4635Y950D01*
X4735Y950D01*
X4635Y1000D02*
X4635Y1000D01*
X4610Y1000D01*
X4610Y1000D02*
X4610Y1000D01*
X4610Y1050D01*
X4610Y1050D02*
X4610Y1050D01*
X4385Y1050D01*
X4385Y1050D02*
X4385Y1050D01*
X4385Y1150D01*
X4310Y1100D02*
X4310Y1100D01*
X4285Y1100D01*
X4285Y1000D02*
X4285Y1000D01*
X4310Y1000D01*
X4635Y1200D02*
X4635Y1200D01*
X4635Y1250D01*
X4635Y1250D02*
X4635Y1250D01*
X4735Y1250D01*
G54D19*
X4120Y1180D02*
X4120Y1180D01*
X4105Y1180D01*
X4120Y1180D02*
X4120Y1180D01*
X4120Y1165D01*
X4120Y1125D02*
X4120Y1125D01*
X4120Y1110D01*
X4120Y1110D02*
X4120Y1110D01*
X4105Y1110D01*
X3995Y1110D02*
X3995Y1110D01*
X3980Y1110D01*
X3980Y1110D02*
X3980Y1110D01*
X3980Y1125D01*
X3980Y1165D02*
X3980Y1165D01*
X3980Y1180D01*
X3980Y1180D02*
X3980Y1180D01*
X3995Y1180D01*
X3975Y1225D02*
X3975Y1225D01*
X3975Y1240D01*
X3975Y1225D02*
X3975Y1225D01*
X3960Y1225D01*
X3975Y1280D02*
X3975Y1280D01*
X3975Y1295D01*
X3975Y1295D02*
X3975Y1295D01*
X3960Y1295D01*
X3850Y1295D02*
X3850Y1295D01*
X3835Y1295D01*
X3835Y1295D02*
X3835Y1295D01*
X3835Y1280D01*
X3835Y1240D02*
X3835Y1240D01*
X3835Y1225D01*
X3835Y1225D02*
X3835Y1225D01*
X3850Y1225D01*
X3850Y975D02*
X3850Y975D01*
X3835Y975D01*
X3835Y975D02*
X3835Y975D01*
X3835Y960D01*
X3835Y920D02*
X3835Y920D01*
X3835Y905D01*
X3835Y905D02*
X3835Y905D01*
X3850Y905D01*
X3960Y905D02*
X3960Y905D01*
X3975Y905D01*
X3975Y905D02*
X3975Y905D01*
X3975Y920D01*
X3975Y960D02*
X3975Y960D01*
X3975Y975D01*
X3975Y975D02*
X3975Y975D01*
X3960Y975D01*
G54D21*
X3985Y989D02*
X3985Y989D01*
X3985Y1009D01*
X3985Y989D02*
X3989Y985D01*
X3989Y985D02*
X3997Y985D01*
X3997Y985D02*
X4001Y989D01*
X4001Y989D02*
X4001Y1009D01*
X4009Y1005D02*
X4009Y1005D01*
X4013Y1009D01*
X4013Y1009D02*
X4021Y1009D01*
X4021Y1009D02*
X4025Y1005D01*
X4025Y1001D02*
X4025Y1005D01*
X4021Y997D02*
X4025Y1001D01*
X4013Y997D02*
X4021Y997D01*
X4009Y993D02*
X4013Y997D01*
X4009Y985D02*
X4009Y993D01*
X4009Y985D02*
X4025Y985D01*
X4050Y1011D02*
X4050Y1011D01*
X4050Y1098D01*
X4050Y1098D02*
X4050Y1098D01*
X4089Y1098D01*
X4089Y1098D02*
X4089Y1098D01*
X4089Y1011D01*
X4089Y1011D02*
X4089Y1011D01*
X4050Y1011D01*
X4050Y1078D02*
X4050Y1078D01*
X4069Y1098D01*
X3997Y1190D02*
X3997Y1190D01*
X4001Y1194D01*
X3997Y1190D02*
X3989Y1190D01*
X3989Y1190D02*
X3985Y1194D01*
X3985Y1194D02*
X3985Y1210D01*
X3985Y1210D02*
X3989Y1214D01*
X3997Y1214D02*
X3989Y1214D01*
X4001Y1210D02*
X3997Y1214D01*
X4009Y1210D02*
X4009Y1210D01*
X4013Y1214D01*
X4021Y1214D02*
X4013Y1214D01*
X4025Y1210D02*
X4021Y1214D01*
X4025Y1206D02*
X4025Y1210D01*
X4021Y1202D02*
X4025Y1206D01*
X4021Y1202D02*
X4013Y1202D01*
X4009Y1198D02*
X4013Y1202D01*
X4009Y1190D02*
X4009Y1198D01*
X4025Y1190D02*
X4009Y1190D01*
X3870Y1205D02*
X3870Y1205D01*
X3870Y995D01*
X3870Y995D02*
X3870Y995D01*
X3838Y995D01*
X3838Y995D02*
X3838Y995D01*
G75*
G03*
X3798Y995I-20J0D01*
G01*
X3798Y995D01*
X3838Y995D02*
X3798Y995D02*
X3798Y995D01*
X3765Y995D01*
X3765Y995D02*
X3765Y995D01*
X3765Y1205D01*
X3765Y1205D02*
X3765Y1205D01*
X3870Y1205D01*
X3790Y1245D02*
X3790Y1245D01*
X3790Y1269D01*
X3802Y1269D02*
X3790Y1269D01*
X3806Y1265D02*
X3802Y1269D01*
X3806Y1261D02*
X3806Y1265D01*
X3806Y1261D02*
X3802Y1257D01*
X3802Y1257D02*
X3790Y1257D01*
X3794Y1257D02*
X3790Y1257D01*
X3806Y1245D02*
X3794Y1257D01*
X3818Y1245D02*
X3818Y1245D01*
X3814Y1249D01*
X3826Y1245D02*
X3818Y1245D01*
X3826Y1245D02*
X3830Y1249D01*
X3830Y1249D02*
X3814Y1265D01*
X3814Y1265D02*
X3818Y1269D01*
X3826Y1269D02*
X3818Y1269D01*
X3830Y1265D02*
X3826Y1269D01*
X3915Y1004D02*
X3915Y1004D01*
X3915Y984D01*
X3915Y984D02*
X3919Y980D01*
X3919Y980D02*
X3927Y980D01*
X3931Y984D02*
X3927Y980D01*
X3931Y1004D02*
X3931Y984D01*
X3943Y1004D02*
X3943Y1004D01*
X3939Y1000D01*
X3943Y1004D02*
X3943Y980D01*
X3939Y980D02*
X3943Y980D01*
X3939Y980D02*
X3947Y980D01*
X3811Y934D02*
X3811Y934D01*
X3807Y930D01*
X3807Y930D02*
X3799Y930D01*
X3799Y930D02*
X3795Y934D01*
X3795Y950D02*
X3795Y934D01*
X3799Y954D02*
X3795Y950D01*
X3807Y954D02*
X3799Y954D01*
X3811Y950D02*
X3807Y954D01*
X3823Y954D02*
X3823Y954D01*
X3819Y950D01*
X3823Y954D02*
X3823Y930D01*
X3823Y930D02*
X3819Y930D01*
X3827Y930D02*
X3819Y930D01*
X4675Y1339D02*
X4675Y1339D01*
X4691Y1339D01*
X4683Y1339D02*
X4691Y1339D01*
X4683Y1315D02*
X4683Y1339D01*
X4699Y1315D02*
X4699Y1315D01*
X4699Y1339D01*
X4715Y1327D02*
X4715Y1327D01*
X4715Y1339D01*
X4699Y1327D02*
X4715Y1327D01*
X4699Y1327D02*
X4715Y1327D01*
X4715Y1315D02*
X4715Y1327D01*
G54D22*
X4185Y1180D02*
X4185Y1180D01*
X4160Y1180D01*
X4170Y1115D02*
X4170Y1115D01*
X4170Y1085D01*
X4155Y1100D02*
X4155Y1100D01*
X4185Y1100D01*
X4185Y1030D02*
X4185Y1030D01*
X4185Y1015D01*
X4185Y1015D02*
X4185Y1015D01*
X4170Y1015D01*
X4170Y1000D02*
X4170Y1000D01*
X4170Y1030D01*
X4160Y1030D02*
X4160Y1030D01*
X4140Y1030D01*
X4150Y1025D02*
X4150Y1025D01*
X4150Y1000D01*
X4185Y1000D02*
X4185Y1000D01*
X4185Y1015D01*
D02*
M02*
